<svg viewBox="0 0 24 24" xmlns="http://www.w3.org/2000/svg" xmlns:xlink="http://www.w3.org/1999/xlink" width="24.000000" height="24.000000" fill="none">
	<rect id="instagram" width="24.000000" height="24.000000" x="0.000000" y="0.000000" fill="rgb(255,255,255)" fill-opacity="0" />
	<g id="Group">
		<g id="Group">
			<path id="Vector" d="M16.5 0L7.5 0C3.3585 0 0 3.3585 0 7.5L0 16.5C0 20.6415 3.3585 24 7.5 24L16.5 24C20.6415 24 24 20.6415 24 16.5L24 7.5C24 3.3585 20.6415 0 16.5 0ZM21.75 16.5C21.75 19.395 19.395 21.75 16.5 21.75L7.5 21.75C4.605 21.75 2.25 19.395 2.25 16.5L2.25 7.5C2.25 4.605 4.605 2.25 7.5 2.25L16.5 2.25C19.395 2.25 21.75 4.605 21.75 7.5L21.75 16.5Z" fill="rgb(255,255,255)" fill-rule="nonzero" />
		</g>
	</g>
	<g id="Group">
		<g id="Group">
			<path id="Vector" d="M12 6C8.6865 6 6 8.6865 6 12C6 15.3135 8.6865 18 12 18C15.3135 18 18 15.3135 18 12C18 8.6865 15.3135 6 12 6ZM12 15.75C9.933 15.75 8.25 14.067 8.25 12C8.25 9.9315 9.933 8.25 12 8.25C14.067 8.25 15.75 9.9315 15.75 12C15.75 14.067 14.067 15.75 12 15.75Z" fill="rgb(255,255,255)" fill-rule="nonzero" />
		</g>
	</g>
	<g id="Group">
		<g id="Group">
			<path id="Vector" d="M18.4479 6.34997C18.8895 6.34997 19.2474 5.99203 19.2474 5.55048C19.2474 5.10892 18.8895 4.75098 18.4479 4.75098C18.0064 4.75098 17.6484 5.10892 17.6484 5.55048C17.6484 5.99203 18.0064 6.34997 18.4479 6.34997Z" fill="rgb(255,255,255)" fill-rule="evenodd" />
		</g>
	</g>
</svg>
